<?xml version="1.0" encoding="UTF-8" standalone="no"?>
<!-- Created with Inkscape (http://www.inkscape.org/) -->

<svg
   xmlns:dc="http://purl.org/dc/elements/1.1/"
   xmlns:cc="http://creativecommons.org/ns#"
   xmlns:rdf="http://www.w3.org/1999/02/22-rdf-syntax-ns#"
   xmlns:svg="http://www.w3.org/2000/svg"
   xmlns="http://www.w3.org/2000/svg"
   xmlns:sodipodi="http://sodipodi.sourceforge.net/DTD/sodipodi-0.dtd"
   xmlns:inkscape="http://www.inkscape.org/namespaces/inkscape"
   width="380.26459mm"
   height="95.26458mm"
   viewBox="0 0 380.26459 95.26458"
   version="1.1"
   id="svg8"
   inkscape:version="0.92.3 (2405546, 2018-03-11)"
   sodipodi:docname="back guard.svg">
  <defs
     id="defs2">
    <marker
       style="overflow:visible"
       refY="0"
       refX="0"
       orient="auto"
       id="DistanceX">
      <path
         id="path12"
         style="stroke:#000000;stroke-width:0.5"
         d="M 3,-3 -3,3 M 0,-5 V 5"
         inkscape:connector-curvature="0" />
    </marker>
    <pattern
       y="0"
       x="0"
       width="8"
       patternUnits="userSpaceOnUse"
       id="Hatch"
       height="8">
      <path
         id="path15"
         stroke-width="0.25"
         stroke="#000000"
         linecap="square"
         d="M8 4 l-4,4" />
      <path
         id="path17"
         stroke-width="0.25"
         stroke="#000000"
         linecap="square"
         d="M6 2 l-4,4" />
      <path
         id="path19"
         stroke-width="0.25"
         stroke="#000000"
         linecap="square"
         d="M4 0 l-4,4" />
    </pattern>
    <symbol
       id="*MODEL_SPACE" />
    <symbol
       id="*PAPER_SPACE" />
  </defs>
  <sodipodi:namedview
     id="base"
     pagecolor="#ffffff"
     bordercolor="#666666"
     borderopacity="1.0"
     inkscape:pageopacity="0.0"
     inkscape:pageshadow="2"
     inkscape:zoom="0.35"
     inkscape:cx="204.32453"
     inkscape:cy="705.74183"
     inkscape:document-units="mm"
     inkscape:current-layer="layer1"
     showgrid="false"
     fit-margin-top="0"
     fit-margin-left="0"
     fit-margin-right="0"
     fit-margin-bottom="0"
     inkscape:window-width="1366"
     inkscape:window-height="705"
     inkscape:window-x="-8"
     inkscape:window-y="-8"
     inkscape:window-maximized="1" />
  <metadata
     id="metadata5">
    <rdf:RDF>
      <cc:Work
         rdf:about="">
        <dc:format>image/svg+xml</dc:format>
        <dc:type
           rdf:resource="http://purl.org/dc/dcmitype/StillImage" />
        <dc:title></dc:title>
      </cc:Work>
    </rdf:RDF>
  </metadata>
  <g
     inkscape:label="Layer 1"
     inkscape:groupmode="layer"
     id="layer1"
     transform="translate(-51.772469,-240.29628)">
    <g
       id="g48"
       inkscape:label="0"
       transform="matrix(0.26458333,0,0,0.26458333,51.904761,-56.571426)">
      <path
         id="path26"
         style="fill:none;stroke:#000000"
         d="m 1412.2205,1122.5197 a 24,24 0 0 1 24,24 v 311.0551 a 24,24 0 0 1 -24,24 H 24 a 24,24 0 0 1 -24,-24 v -311.0551 a 24,24 0 0 1 24,-24 z"
         inkscape:connector-curvature="0" />
      <path
         id="path28"
         style="fill:none;stroke:#000000"
         d="m 1371.0236,1154.6457 a 10.393701,10.393701 0 1 0 -20.7874,0 10.393701,10.393701 0 1 0 20.7874,0 z"
         inkscape:connector-curvature="0" />
      <path
         id="path30"
         style="fill:none;stroke:#000000"
         d="m 728.50394,1154.6457 a 10.393701,10.393701 0 1 0 -20.7874,0 10.393701,10.393701 0 1 0 20.7874,0 z"
         inkscape:connector-curvature="0" />
      <path
         id="path32"
         style="fill:none;stroke:#000000"
         d="m 1049.7638,1449.4488 a 10.393701,10.393701 0 1 0 -20.7874,0 10.393701,10.393701 0 1 0 20.7874,0 z"
         inkscape:connector-curvature="0" />
      <path
         id="path34"
         style="fill:none;stroke:#000000"
         d="m 728.50394,1449.4488 a 10.393701,10.393701 0 1 0 -20.7874,0 10.393701,10.393701 0 1 0 20.7874,0 z"
         inkscape:connector-curvature="0" />
      <path
         id="path36"
         style="fill:none;stroke:#000000"
         d="m 1049.7638,1154.6457 a 10.393701,10.393701 0 1 0 -20.7874,0 10.393701,10.393701 0 1 0 20.7874,0 z"
         inkscape:connector-curvature="0" />
      <path
         id="path38"
         style="fill:none;stroke:#000000"
         d="m 1371.0236,1449.4488 a 10.393701,10.393701 0 1 0 -20.7874,0 10.393701,10.393701 0 1 0 20.7874,0 z"
         inkscape:connector-curvature="0" />
      <path
         id="path40"
         style="fill:none;stroke:#000000"
         d="m 85.984252,1449.4488 a 10.393701,10.393701 0 1 0 -20.787402,0 10.393701,10.393701 0 1 0 20.787402,0 z"
         inkscape:connector-curvature="0" />
      <path
         id="path42"
         style="fill:none;stroke:#000000"
         d="m 407.24409,1154.6457 a 10.393701,10.393701 0 1 0 -20.7874,0 10.393701,10.393701 0 1 0 20.7874,0 z"
         inkscape:connector-curvature="0" />
      <path
         id="path44"
         style="fill:none;stroke:#000000"
         d="m 407.24409,1449.4488 a 10.393701,10.393701 0 1 0 -20.7874,0 10.393701,10.393701 0 1 0 20.7874,0 z"
         inkscape:connector-curvature="0" />
      <path
         id="path46"
         style="fill:none;stroke:#000000"
         d="m 85.984252,1154.6457 a 10.393701,10.393701 0 1 0 -20.787402,0 10.393701,10.393701 0 1 0 20.787402,0 z"
         inkscape:connector-curvature="0" />
    </g>
  </g>
</svg>
