<?xml version="1.0" encoding="UTF-8" standalone="no"?>
<!-- Created with Inkscape (http://www.inkscape.org/) -->

<svg
   xmlns:dc="http://purl.org/dc/elements/1.1/"
   xmlns:cc="http://creativecommons.org/ns#"
   xmlns:rdf="http://www.w3.org/1999/02/22-rdf-syntax-ns#"
   xmlns:svg="http://www.w3.org/2000/svg"
   xmlns="http://www.w3.org/2000/svg"
   xmlns:sodipodi="http://sodipodi.sourceforge.net/DTD/sodipodi-0.dtd"
   xmlns:inkscape="http://www.inkscape.org/namespaces/inkscape"
   width="204.9325mm"
   height="211.91783mm"
   viewBox="0 0 204.9325 211.91783"
   version="1.1"
   id="svg8"
   inkscape:version="0.92.3 (2405546, 2018-03-11)"
   sodipodi:docname="side guard3 notch.svg">
  <defs
     id="defs2">
    <marker
       style="overflow:visible"
       refY="0"
       refX="0"
       orient="auto"
       id="DistanceX">
      <path
         id="path12"
         style="stroke:#000000;stroke-width:0.5"
         d="M 3,-3 -3,3 M 0,-5 V 5"
         inkscape:connector-curvature="0" />
    </marker>
    <pattern
       y="0"
       x="0"
       width="8"
       patternUnits="userSpaceOnUse"
       id="Hatch"
       height="8">
      <path
         id="path15"
         stroke-width="0.25"
         stroke="#000000"
         linecap="square"
         d="M8 4 l-4,4" />
      <path
         id="path17"
         stroke-width="0.25"
         stroke="#000000"
         linecap="square"
         d="M6 2 l-4,4" />
      <path
         id="path19"
         stroke-width="0.25"
         stroke="#000000"
         linecap="square"
         d="M4 0 l-4,4" />
    </pattern>
    <symbol
       id="*MODEL_SPACE" />
    <symbol
       id="*PAPER_SPACE" />
  </defs>
  <sodipodi:namedview
     id="base"
     pagecolor="#ffffff"
     bordercolor="#666666"
     borderopacity="1.0"
     inkscape:pageopacity="0.0"
     inkscape:pageshadow="2"
     inkscape:zoom="0.35"
     inkscape:cx="644.41686"
     inkscape:cy="-125.23964"
     inkscape:document-units="mm"
     inkscape:current-layer="layer1"
     showgrid="false"
     fit-margin-top="0"
     fit-margin-left="0"
     fit-margin-right="0"
     fit-margin-bottom="0"
     inkscape:window-width="1366"
     inkscape:window-height="705"
     inkscape:window-x="-8"
     inkscape:window-y="-8"
     inkscape:window-maximized="1" />
  <metadata
     id="metadata5">
    <rdf:RDF>
      <cc:Work
         rdf:about="">
        <dc:format>image/svg+xml</dc:format>
        <dc:type
           rdf:resource="http://purl.org/dc/dcmitype/StillImage" />
        <dc:title></dc:title>
      </cc:Work>
    </rdf:RDF>
  </metadata>
  <g
     inkscape:label="Layer 1"
     inkscape:groupmode="layer"
     id="layer1"
     transform="translate(248.36506,96.220821)">
    <g
       id="g36"
       inkscape:label="0"
       transform="matrix(0.26458333,0,0,0.26458333,-43.564855,-393.08853)">
      <path
         id="path26"
         style="fill:none;stroke:#000000"
         d="m -773.54801,1717.4428 h 48.02761 v -148.8 h -48.02761 v -122.749 a 9.448819,9.448819 0 0 1 2.81465,-6.7281 l 107.52185,-106.0197 a 9.448819,9.448819 0 0 0 2.81466,-6.7282 v -194.4493 a 9.448819,9.448819 0 0 1 9.44882,-9.4488 H -9.448819 A 9.448819,9.448819 0 0 1 0,1131.9685 v 141.7323 a 648.81214,648.81214 0 0 1 -641.26455,648.7682 h -132.28346 z"
         inkscape:connector-curvature="0" />
      <path
         id="path28"
         style="fill:none;stroke:#000000"
         d="m -159.68504,1235.9055 a 10.393701,10.393701 0 1 0 -20.7874,0 10.393701,10.393701 0 1 0 20.7874,0 z"
         inkscape:connector-curvature="0" />
      <path
         id="path30"
         style="fill:none;stroke:#000000"
         d="m -480.94488,1160.315 a 10.393701,10.393701 0 1 0 -20.7874,0 10.393701,10.393701 0 1 0 20.7874,0 z"
         inkscape:connector-curvature="0" />
      <path
         id="path32"
         style="fill:none;stroke:#000000"
         d="m -159.68504,1160.315 a 10.393701,10.393701 0 1 0 -20.7874,0 10.393701,10.393701 0 1 0 20.7874,0 z"
         inkscape:connector-curvature="0" />
      <path
         id="path34"
         style="fill:none;stroke:#000000"
         d="m -480.94488,1235.9055 a 10.393701,10.393701 0 1 0 -20.7874,0 10.393701,10.393701 0 1 0 20.7874,0 z"
         inkscape:connector-curvature="0" />
    </g>
  </g>
</svg>
